<?xml version="1.0" encoding="UTF-8"?>
<!DOCTYPE svg PUBLIC "-//W3C//DTD SVG 1.0//EN"
	"http://www.w3.org/TR/2001/REC-SVG-20010904/DTD/svg10.dtd">
<svg xmlns="http://www.w3.org/2000/svg" version="1.0" width="600" height="600.00049" id="s1">
<g transform="translate(-269.99993,-5.2188028)" id="l1">
<g transform="matrix(2,0,0,2,-269.99996,-605.21937)" id="g1">
<path d="M300 497.71933A4.6428571 4.6428571 0 1 1 290.71429,497.71933A4.6428571 4.6428571 0 1 1 300 497.71933z" transform="matrix(32.307692,0,0,32.303103,-9122.3078,-15622.681)" style="fill:#f2e965;fill-opacity:1;stroke:none;stroke-width:2;stroke-miterlimit:4;stroke-dasharray:none;stroke-dashoffset:1.8;stroke-opacity:1" id="p1"/>
<path d="M419.99979,305.26195C346.30919,305.26195 284.99929,358.50786 272.39562,428.57777L316.66646,428.57777C328.51056,382.5851 370.31969,348.58913 419.99979,348.58913C469.67993,348.5891 511.48903,382.5851 523.33313,428.57777L567.60396,428.57777C555.00026,358.50786 493.69036,305.26199 419.99979,305.26195zM272.39562,481.90353C284.99929,551.97344 346.30916,605.21938 419.99979,605.21934C493.69039,605.21934 555.00026,551.97347 567.60396,481.90353L523.33313,481.90353C511.48899,527.89619 469.67989,561.89216 419.99979,561.89216C370.31969,561.89213 328.51056,527.89619 316.66646,481.90353L272.39562,481.90353z" style="fill:#732221;fill-opacity:1;stroke:none;stroke-width:2;stroke-miterlimit:4;stroke-dasharray:none;stroke-dashoffset:1.8;stroke-opacity:1" id="p2"/>
</g>
</g>
</svg>